<svg width="42" height="42" viewBox="0 0 42 42" fill="none" xmlns="http://www.w3.org/2000/svg">
<g clip-path="url(#clip0_115_21973)">
<path d="M21.0381 41.9238C32.615 41.9238 42 32.5389 42 20.9619C42 9.38497 32.615 0 21.0381 0C9.46114 0 0.0761719 9.38497 0.0761719 20.9619C0.0761719 32.5389 9.46114 41.9238 21.0381 41.9238Z" fill="#FF8313"/>
<path d="M32.0067 12.4709C31.9032 12.4615 31.7988 12.4615 31.6953 12.4709H10.4256C10.2892 12.4727 10.1538 12.4907 10.0229 12.5243L20.9996 22.14L32.0067 12.4709Z" fill="white"/>
<path d="M33.1312 13.3998L22.0709 23.089C21.7863 23.3379 21.4012 23.4776 20.9998 23.4776C20.5985 23.4776 20.2134 23.3379 19.9287 23.089L8.96724 13.4733C8.93354 13.5823 8.91567 13.6946 8.91406 13.8075V27.1718C8.91406 27.5262 9.07413 27.8662 9.35905 28.1168C9.64396 28.3674 10.0304 28.5082 10.4333 28.5082H31.7031C32.106 28.5082 32.4924 28.3674 32.7773 28.1168C33.0623 27.8662 33.2223 27.5262 33.2223 27.1718V13.8075C33.2163 13.6682 33.1855 13.5307 33.1312 13.3998ZM11.474 27.1718H10.4181V26.2162L15.9407 21.3984L17.0118 22.3406L11.474 27.1718ZM31.6879 27.1718H30.6244L25.0867 22.3406L26.1577 21.3984L31.6803 26.2162L31.6879 27.1718Z" fill="white"/>
</g>
<defs>
<clipPath id="clip0_115_21973">
<rect width="41.9238" height="41.9238" fill="white" transform="translate(0.0761719)"/>
</clipPath>
</defs>
</svg>
