<svg width="43" height="42" viewBox="0 0 43 42" fill="none" xmlns="http://www.w3.org/2000/svg">
<g clip-path="url(#clip0_115_21965)">
<path d="M21.4209 41.9238C32.9978 41.9238 42.3828 32.5389 42.3828 20.9619C42.3828 9.38497 32.9978 0 21.4209 0C9.84395 0 0.458984 9.38497 0.458984 20.9619C0.458984 32.5389 9.84395 41.9238 21.4209 41.9238Z" fill="url(#paint0_linear_115_21965)"/>
<path d="M29.8323 11.6849C29.8323 11.6849 31.9918 10.8429 31.8118 12.8878C31.7518 13.7299 31.212 16.6771 30.7921 19.8649L29.3524 29.3079C29.3524 29.3079 29.2325 30.6912 28.1527 30.9318C27.0729 31.1724 25.4533 30.0898 25.1534 29.8492C24.9134 29.6688 20.6545 26.9621 19.1548 25.6389C18.7349 25.278 18.255 24.5563 19.2148 23.7142L25.5133 17.6996C26.2331 16.9778 26.953 15.2937 23.9537 17.3387L15.5557 23.0526C15.5557 23.0526 14.5959 23.6541 12.7964 23.1128L8.89727 21.9098C8.89727 21.9098 7.45761 21.0077 9.91703 20.1054C15.9156 17.2785 23.2939 14.3915 29.8323 11.6849Z" fill="white"/>
</g>
<defs>
<linearGradient id="paint0_linear_115_21965" x1="21.4209" y1="41.9238" x2="21.4209" y2="0" gradientUnits="userSpaceOnUse">
<stop stop-color="#1D93D2"/>
<stop offset="1" stop-color="#38B0E3"/>
</linearGradient>
<clipPath id="clip0_115_21965">
<rect width="41.9238" height="41.9238" fill="white" transform="translate(0.458984)"/>
</clipPath>
</defs>
</svg>
