<svg width="43" height="42" viewBox="0 0 43 42" fill="none" xmlns="http://www.w3.org/2000/svg">
<rect x="0.150391" width="41.9238" height="41.9238" rx="20.9619" fill="url(#paint0_linear_115_21978)"/>
<path d="M29.7112 12.3577C28.593 11.2338 27.261 10.3427 25.7931 9.73638C24.3252 9.13006 22.7506 8.82063 21.1612 8.82614C14.5017 8.82614 9.07414 14.2266 9.07414 20.8527C9.07414 22.9765 9.63519 25.0396 10.6841 26.86L8.97656 33.0978L15.3799 31.423C17.1484 32.3817 19.1365 32.8914 21.1612 32.8914C27.8207 32.8914 33.2483 27.491 33.2483 20.8649C33.2483 17.6489 31.992 14.6271 29.7112 12.3577ZM21.1612 30.8526C19.3561 30.8526 17.5875 30.3672 16.0385 29.457L15.6726 29.2386L11.8672 30.2337L12.8795 26.5444L12.6356 26.1682C11.6327 24.5747 11.1002 22.7329 11.0988 20.8527C11.0988 15.3431 15.6116 10.8528 21.149 10.8528C23.8323 10.8528 26.357 11.8965 28.2476 13.7897C29.1836 14.7168 29.9255 15.8196 30.43 17.0341C30.9346 18.2486 31.1919 19.5507 31.187 20.8649C31.2114 26.3745 26.6986 30.8526 21.1612 30.8526ZM26.6742 23.377C26.3692 23.2313 24.8812 22.5032 24.6129 22.394C24.3324 22.2969 24.1372 22.2483 23.9299 22.5396C23.7225 22.843 23.1493 23.5226 22.9785 23.7168C22.8078 23.9231 22.6248 23.9474 22.3199 23.7896C22.015 23.644 21.0392 23.3163 19.8927 22.2969C18.9902 21.4959 18.3925 20.5129 18.2096 20.2095C18.0388 19.9061 18.1852 19.7484 18.3437 19.5906C18.4779 19.4571 18.6486 19.2387 18.795 19.0688C18.9414 18.8989 19.0024 18.7654 19.0999 18.5712C19.1975 18.3649 19.1487 18.195 19.0755 18.0494C19.0024 17.9037 18.3925 16.4232 18.1486 15.8164C17.9046 15.2338 17.6485 15.3067 17.4656 15.2945H16.8801C16.6728 15.2945 16.3556 15.3673 16.0751 15.6707C15.8068 15.9741 15.0262 16.7023 15.0262 18.1828C15.0262 19.6634 16.1117 21.0954 16.2581 21.2896C16.4044 21.4959 18.3925 24.5299 21.4173 25.8284C22.1369 26.1439 22.698 26.326 23.1371 26.4595C23.8567 26.6901 24.5153 26.6536 25.0398 26.5808C25.6252 26.4959 26.8327 25.8527 27.0767 25.1488C27.3328 24.4449 27.3328 23.8503 27.2474 23.7168C27.162 23.5833 26.9791 23.5226 26.6742 23.377Z" fill="white"/>
<defs>
<linearGradient id="paint0_linear_115_21978" x1="21.1123" y1="0" x2="21.1123" y2="41.9238" gradientUnits="userSpaceOnUse">
<stop stop-color="#53CD5E"/>
<stop offset="1" stop-color="#28B63E"/>
</linearGradient>
</defs>
</svg>
